#N canvas 44 51 939 695 10;
#X obj 87 44 inlet;
#X obj 87 177 rest-json;
#X obj 87 204 list trim;
#X obj 87 255 l2s;
#X obj 87 281 json-decode;
#X obj 87 670 outlet;
#X obj 87 86 pack f s;
#X obj 167 13 loadbang;
#X obj 167 57 symbol \$1;
#X obj 478 164 rest-json;
#X msg 478 112 GET http://localhost:5984/indices/_design/sorted/_view/minmax?key="\$1"
;
#X obj 478 189 list trim;
#X obj 478 341 l2s;
#X obj 478 366 json-decode;
#X obj 478 390 list trim;
#X obj 478 317 route value;
#X obj 87 568 -;
#X obj 484 538 -;
#X obj 450 440 pack f f f;
#X obj 450 468 unpack f f f;
#X obj 478 414 route max min;
#X obj 519 501 t f f;
#X obj 87 594 /;
#X msg 231 423 stop;
#X obj 87 475 fifop;
#X obj 377 661 outlet;
#X obj 114 501 t b b;
#X obj 87 308 list trim;
#X obj 87 335 route value;
#X obj 478 243 l2s;
#X obj 478 269 json-decode;
#X obj 478 218 route rows;
#X obj 478 296 list trim;
#X obj 197 668 outlet;
#X obj 296 360 sel 0;
#X msg 297 430 0;
#X obj 87 230 route rows offset;
#X obj 87 619 * 300;
#X obj 141 672 outlet;
#X obj 87 531 t f f f b f;
#X obj 170 447 metro 250;
#X obj 196 598 f;
#X obj 197 624 expr if($f1 != 0 && abs(($f1 - $f2)/ $f1) > 0.001 \,
abs(($f1 - $f2) / $f1) * 10 \, 0.01);
#X msg 87 113 GET http://localhost:5984/indices/_design/sorted/_view/bydate_closeonly?startkey=%5B"\$2"%2C\$1%2C0%5D&endkey=%5B"\$2"%2C\$1%2C366%5D
;
#X obj 167 34 t b b;
#X msg 250 56 set sync;
#X connect 0 0 6 0;
#X connect 1 0 2 0;
#X connect 1 1 40 0;
#X connect 2 0 36 0;
#X connect 3 0 4 0;
#X connect 4 0 27 0;
#X connect 6 0 43 0;
#X connect 7 0 44 0;
#X connect 8 0 10 0;
#X connect 8 0 6 1;
#X connect 9 0 11 0;
#X connect 10 0 9 0;
#X connect 11 0 31 0;
#X connect 12 0 13 0;
#X connect 13 0 14 0;
#X connect 13 1 18 0;
#X connect 14 0 20 0;
#X connect 15 0 12 0;
#X connect 16 0 22 0;
#X connect 17 0 22 1;
#X connect 18 0 19 0;
#X connect 19 1 17 0;
#X connect 19 2 21 0;
#X connect 20 0 18 1;
#X connect 20 1 18 2;
#X connect 21 0 16 1;
#X connect 21 1 17 1;
#X connect 22 0 37 0;
#X connect 23 0 40 0;
#X connect 24 0 39 0;
#X connect 24 1 26 0;
#X connect 26 0 25 0;
#X connect 26 1 23 0;
#X connect 27 0 28 0;
#X connect 28 0 24 0;
#X connect 29 0 30 0;
#X connect 30 0 32 0;
#X connect 31 0 29 0;
#X connect 32 0 15 0;
#X connect 34 0 35 0;
#X connect 35 0 33 0;
#X connect 36 0 3 0;
#X connect 36 1 34 0;
#X connect 37 0 5 0;
#X connect 39 0 16 0;
#X connect 39 1 38 0;
#X connect 39 2 41 1;
#X connect 39 3 41 0;
#X connect 39 4 42 1;
#X connect 40 0 24 0;
#X connect 41 0 42 0;
#X connect 42 0 33 0;
#X connect 43 0 1 0;
#X connect 44 0 8 0;
#X connect 44 1 45 0;
#X connect 45 0 1 0;
