#N canvas 0 0 939 695 10;
#X obj 87 44 inlet;
#X obj 87 177 rest-json;
#X obj 87 204 list trim;
#X obj 87 255 l2s;
#X obj 87 281 json-decode;
#X obj 88 423 list trim;
#X obj 87 230 route rows;
#X obj 88 447 route Close;
#X obj 88 670 outlet;
#X obj 87 86 pack f s;
#X obj 162 32 loadbang;
#X obj 167 57 symbol \$1;
#X obj 478 164 rest-json;
#X msg 478 112 GET http://localhost:5984/indices/_design/sorted/_view/minmax?key="\$1"
;
#X obj 478 189 list trim;
#X obj 478 341 l2s;
#X obj 478 366 json-decode;
#X obj 478 390 list trim;
#X obj 478 317 route value;
#X obj 88 568 -;
#X obj 484 538 -;
#X obj 450 440 pack f f f;
#X obj 450 468 unpack f f f;
#X obj 478 414 route max min;
#X obj 519 501 t f f;
#X obj 88 594 /;
#X obj 88 619 * 1000;
#X obj 88 641 + 50;
#X msg 231 423 stop;
#X obj 88 475 fifop;
#X obj 204 670 outlet;
#X obj 204 528 t b b;
#X obj 87 308 list trim;
#X obj 87 359 l2s;
#X obj 87 385 json-decode;
#X obj 87 335 route value;
#X obj 478 243 l2s;
#X obj 478 269 json-decode;
#X obj 478 218 route rows;
#X obj 478 296 list trim;
#X obj 171 447 metro 100;
#X obj 247 237 print;
#X msg 87 113 GET http://localhost:5984/indices/_design/sorted/_view/bydate?startkey=%5B"\$2"%2C\$1%2C0%5D&endkey=%5B"\$2"%2C\$1%2C366%5D
;
#X connect 0 0 9 0;
#X connect 1 0 2 0;
#X connect 1 1 40 0;
#X connect 2 0 6 0;
#X connect 3 0 4 0;
#X connect 4 0 32 0;
#X connect 5 0 7 0;
#X connect 6 0 3 0;
#X connect 7 0 29 0;
#X connect 9 0 42 0;
#X connect 10 0 11 0;
#X connect 11 0 13 0;
#X connect 11 0 9 1;
#X connect 12 0 14 0;
#X connect 13 0 12 0;
#X connect 14 0 38 0;
#X connect 15 0 16 0;
#X connect 16 0 17 0;
#X connect 16 1 21 0;
#X connect 17 0 23 0;
#X connect 18 0 15 0;
#X connect 19 0 25 0;
#X connect 20 0 25 1;
#X connect 21 0 22 0;
#X connect 22 1 20 0;
#X connect 22 2 24 0;
#X connect 23 0 21 1;
#X connect 23 1 21 2;
#X connect 24 0 19 1;
#X connect 24 1 20 1;
#X connect 25 0 26 0;
#X connect 26 0 27 0;
#X connect 27 0 8 0;
#X connect 28 0 40 0;
#X connect 29 0 19 0;
#X connect 29 1 31 0;
#X connect 31 0 30 0;
#X connect 31 1 28 0;
#X connect 32 0 35 0;
#X connect 33 0 34 0;
#X connect 34 0 5 0;
#X connect 35 0 33 0;
#X connect 36 0 37 0;
#X connect 37 0 39 0;
#X connect 38 0 36 0;
#X connect 39 0 18 0;
#X connect 40 0 29 0;
#X connect 42 0 1 0;
#X connect 42 0 41 0;
