#N canvas 0 0 939 676 10;
#X obj 87 44 inlet;
#X obj 87 243 rest-json;
#X obj 87 276 list trim;
#X obj 87 327 l2s;
#X obj 87 353 json-decode;
#X obj 87 383 list trim;
#X obj 87 436 l2s;
#X obj 87 465 json-decode;
#X obj 87 495 list trim;
#X obj 87 303 route rows;
#X obj 87 412 route value;
#X obj 87 524 route Close;
#X msg 87 175 GET http://localhost:5984/indices/_design/sorted/_view/bydate?startkey=%5B"\$1"%2C"\$2"%2C""%5D&endkey=%5B"\$1"%2C"\$2"%2C"9999-99-99"%5D
;
#X obj 87 554 outlet;
#X obj 87 129 pack f s;
#X obj 162 32 loadbang;
#X obj 167 57 symbol \$1;
#X obj 478 238 rest-json;
#X obj 331 265 print;
#X msg 478 180 GET http://localhost:5984/indices/_design/sorted/_view/minmax?key="\$1"
;
#X connect 0 0 14 0;
#X connect 1 0 2 0;
#X connect 2 0 9 0;
#X connect 3 0 4 0;
#X connect 4 0 5 0;
#X connect 5 0 10 0;
#X connect 6 0 7 0;
#X connect 7 0 8 0;
#X connect 8 0 11 0;
#X connect 9 0 3 0;
#X connect 10 0 6 0;
#X connect 11 0 13 0;
#X connect 12 0 1 0;
#X connect 14 0 12 0;
#X connect 15 0 16 0;
#X connect 16 0 19 0;
#X connect 16 0 14 1;
#X connect 17 0 18 0;
#X connect 19 0 17 0;
