#N canvas 732 160 450 313 10;
#X obj 35 29 inlet;
#X obj 38 257 outlet~;
#X obj 92 30 inlet;
#X obj 103 256 outlet;
#X obj 35 129 phasor~;
#X obj 35 56 + 20;
#X obj 36 208 -~ 0.5;
#X obj 92 106 line;
#X obj 35 177 bp~ 100 1;
#X msg 92 82 \$1 250;
#X obj 97 151 * 4;
#X obj 159 97 line;
#X msg 143 49 \$1 250;
#X obj 37 233 *~ 0;
#X connect 0 0 5 0;
#X connect 2 0 9 0;
#X connect 4 0 8 0;
#X connect 5 0 12 0;
#X connect 5 0 4 0;
#X connect 6 0 13 0;
#X connect 7 0 13 1;
#X connect 8 0 6 0;
#X connect 9 0 7 0;
#X connect 10 0 8 1;
#X connect 11 0 10 0;
#X connect 11 0 3 0;
#X connect 12 0 11 0;
#X connect 13 0 1 0;
