#N canvas 468 61 836 501 10;
#X obj 255 148 dac~;
#N canvas 44 51 994 666 get-data-from-couchdb 0;
#X obj 157 78 inlet;
#X obj -2 534 outlet~;
#X obj 89 532 outlet~;
#X obj 155 532 outlet;
#X obj 223 531 outlet;
#X obj 299 533 outlet;
#X obj 455 534 outlet;
#X obj 157 237 t a a a;
#X obj 157 183 f;
#X obj 198 184 + 1;
#X obj 251 83 spigot;
#X obj 251 106 spigot;
#X obj 251 129 spigot;
#X obj 104 333 t b b;
#X msg 131 357 1;
#X obj 251 337 t b b;
#X msg 278 361 1;
#X obj 425 343 t b b;
#X msg 452 371 1;
#X obj 251 152 t b b;
#X msg 490 100 0;
#X obj 0 415 pan~;
#X obj 176 422 pan~;
#X obj 331 420 pan~;
#X obj -93 228 loadbang;
#X obj -93 256 t b b b;
#X msg -93 287 -45;
#X msg -64 287 0;
#X msg -36 288 45;
#X obj 157 214 moses 2012;
#X obj 89 477 +~;
#X obj 88 504 +~;
#X obj -1 474 +~;
#X obj -2 504 +~;
#X obj -1 310 get-index dowjones;
#X obj 332 394 make-sound-from-index;
#X obj 176 385 make-sound-from-index;
#X obj 0 381 make-sound-from-index;
#X obj 525 534 outlet;
#X obj 525 512 bng 15 250 50 0 empty empty empty 17 7 0 10 -262144
-1 -1;
#X obj 332 316 get-index nikkei;
#X obj 176 312 get-index dax;
#X connect 0 0 8 0;
#X connect 7 0 34 0;
#X connect 7 1 41 0;
#X connect 7 2 40 0;
#X connect 8 0 9 0;
#X connect 8 0 29 0;
#X connect 9 0 8 1;
#X connect 10 0 11 0;
#X connect 11 0 12 0;
#X connect 12 0 19 0;
#X connect 13 0 10 0;
#X connect 13 1 14 0;
#X connect 14 0 10 1;
#X connect 15 0 10 0;
#X connect 15 1 16 0;
#X connect 16 0 11 1;
#X connect 17 0 10 0;
#X connect 17 1 18 0;
#X connect 18 0 12 1;
#X connect 19 0 8 0;
#X connect 19 1 20 0;
#X connect 20 0 12 1;
#X connect 20 0 11 1;
#X connect 20 0 10 1;
#X connect 21 0 32 0;
#X connect 21 1 30 0;
#X connect 22 0 32 1;
#X connect 22 1 30 1;
#X connect 23 0 33 1;
#X connect 23 1 31 1;
#X connect 24 0 25 0;
#X connect 25 0 26 0;
#X connect 25 1 27 0;
#X connect 25 2 28 0;
#X connect 26 0 21 1;
#X connect 27 0 22 1;
#X connect 28 0 23 1;
#X connect 29 0 7 0;
#X connect 29 0 3 0;
#X connect 29 1 39 0;
#X connect 30 0 31 0;
#X connect 31 0 2 0;
#X connect 32 0 33 0;
#X connect 33 0 1 0;
#X connect 34 0 37 0;
#X connect 34 2 37 1;
#X connect 34 3 13 0;
#X connect 35 0 23 0;
#X connect 35 1 6 0;
#X connect 36 0 22 0;
#X connect 36 1 5 0;
#X connect 37 0 21 0;
#X connect 37 1 4 0;
#X connect 39 0 38 0;
#X connect 40 0 35 0;
#X connect 40 2 35 1;
#X connect 40 3 17 0;
#X connect 41 0 36 0;
#X connect 41 2 36 1;
#X connect 41 3 15 0;
#X restore 297 40 pd get-data-from-couchdb;
#X obj 213 257 gemhead;
#X msg 198 200 0 \, destroy;
#X msg 131 165 \; pd dsp 0;
#X msg 64 166 \; pd dsp 1;
#X obj 37 140 t b b;
#X obj 131 126 t b b;
#N canvas 44 117 547 468 control-gem-window 0;
#X obj 64 340 gemwin;
#X obj 25 16 inlet;
#X obj 65 221 list2symbol;
#X msg 148 277 dimen 800 600 \, border 0 \, offset 1366 0 \, title
\$1;
#X msg 65 252 dimen 800 600 \, border 1 \, offset 0 0 \, title \$1
;
#X msg 65 191 Money Talks;
#X obj 26 159 t a b b;
#X msg 45 289 lighting 0;
#X connect 1 0 6 0;
#X connect 2 0 4 0;
#X connect 2 0 3 0;
#X connect 4 0 0 0;
#X connect 5 0 2 0;
#X connect 6 0 0 0;
#X connect 6 1 7 0;
#X connect 6 2 5 0;
#X connect 7 0 0 0;
#X restore 37 236 pd control-gem-window;
#X obj 83 60 sel 1 0;
#X msg 37 199 create \, 1 \, frame 25;
#X obj 83 33 tgl 15 0 empty empty empty 17 7 0 10 -262144 -1 -1 1 1
;
#X obj 213 321 scale;
#X obj 378 255 gemhead;
#X obj 378 324 scale;
#X obj 535 254 gemhead;
#X obj 535 323 scale;
#N canvas 823 262 450 300 background 0;
#X obj 45 39 gemhead;
#X obj 45 101 pix_texture;
#X obj 45 70 pix_image earth_complete.jpg;
#X obj 45 131 translateXYZ 0 0 -10;
#X obj 45 159 rectangle 20 10;
#X connect 0 0 2 0;
#X connect 1 0 3 0;
#X connect 2 0 1 0;
#X connect 3 0 4 0;
#X restore 48 416 pd background;
#X obj 321 113 normalize~;
#X obj 254 113 normalize~;
#N canvas 44 51 450 413 record-video 0;
#X obj 70 65 inlet;
#X obj 133 66 inlet;
#X obj 210 66 inlet;
#X msg 70 113 auto 1;
#X msg 133 184 auto 0;
#X msg 97 146 file /home/thomas/Bilder/gem-rec/record 80;
#X obj 133 241 spigot;
#X obj 133 266 pix_write;
#X obj 70 90 t b b;
#X obj 16 180 gemhead -1;
#X connect 0 0 8 0;
#X connect 1 0 4 0;
#X connect 2 0 6 1;
#X connect 3 0 6 0;
#X connect 4 0 6 0;
#X connect 5 0 6 0;
#X connect 6 0 7 0;
#X connect 8 0 3 0;
#X connect 8 1 5 0;
#X connect 9 0 6 0;
#X restore 441 170 pd record-video;
#X obj 528 144 tgl 15 0 empty empty empty 17 7 0 10 -262144 -1 -1 0
1;
#N canvas 44 51 450 300 record-audio 0;
#X obj 32 34 inlet;
#X obj 81 36 inlet;
#X obj 251 36 inlet;
#X obj 81 215 writesf~ 2;
#X obj 133 37 inlet~;
#X obj 195 36 inlet~;
#X obj 81 144 spigot;
#X msg 32 84 open /home/thomas/Bilder/gem-rec/sound.wav \, start;
#X msg 81 59 stop;
#X connect 0 0 7 0;
#X connect 1 0 8 0;
#X connect 2 0 6 1;
#X connect 4 0 3 0;
#X connect 5 0 3 1;
#X connect 6 0 3 0;
#X connect 7 0 6 0;
#X connect 8 0 6 0;
#X restore 414 219 pd record-audio;
#X obj 501 196 tgl 15 0 empty empty empty 17 7 0 10 -262144 -1 -1 0
1;
#N canvas 44 51 450 442 text-display 0;
#X obj 177 76 inlet;
#X msg 177 132 text \$1;
#X obj 43 107 gemhead;
#X msg 236 156 font /usr/share/fonts/truetype/ttf-dejavu/DejaVuSerif.ttf
;
#X obj 43 155 scale 0.5;
#X obj 43 131 translateXYZ -4 3.4 0;
#X obj 236 132 loadbang;
#X obj 177 187 text2d;
#X connect 0 0 1 0;
#X connect 1 0 7 0;
#X connect 2 0 5 0;
#X connect 3 0 7 0;
#X connect 4 0 7 0;
#X connect 5 0 4 0;
#X connect 6 0 3 0;
#X restore 344 88 pd text-display;
#X obj 213 346 ortho;
#X obj 378 348 ortho;
#X obj 535 347 ortho;
#X obj 391 300 / 250;
#X obj 213 416 circle 1 32;
#X obj 378 277 translateXYZ 0.27 1.55 -5;
#X obj 213 278 translateXYZ -1.87 1.15 -5;
#X obj 535 277 translateXYZ 3.35 1.2 -5;
#X obj 548 300 / 250;
#X obj 484 143 t b b;
#X obj 213 393 pix_texture;
#X obj 213 370 pix_image ctex.jpg;
#X obj 378 418 circle 1 32;
#X obj 378 395 pix_texture;
#X obj 378 372 pix_image ctex.jpg;
#X obj 535 417 circle 1 32;
#X obj 535 394 pix_texture;
#X obj 535 371 pix_image ctex.jpg;
#X obj 414 142 t b b;
#X obj 344 59 t a a;
#X obj 226 298 / 250;
#X msg 297 14 1995;
#X obj 414 114 sel 2007 2009;
#X connect 1 0 19 0;
#X connect 1 1 18 0;
#X connect 1 2 44 0;
#X connect 1 3 45 0;
#X connect 1 4 28 0;
#X connect 1 5 33 0;
#X connect 1 6 46 0;
#X connect 2 0 31 0;
#X connect 3 0 8 0;
#X connect 6 0 10 0;
#X connect 6 1 5 0;
#X connect 7 0 4 0;
#X connect 7 1 3 0;
#X connect 9 0 6 0;
#X connect 9 1 7 0;
#X connect 10 0 8 0;
#X connect 11 0 9 0;
#X connect 12 0 25 0;
#X connect 13 0 30 0;
#X connect 14 0 26 0;
#X connect 15 0 32 0;
#X connect 16 0 27 0;
#X connect 18 0 0 1;
#X connect 18 0 22 3;
#X connect 19 0 0 0;
#X connect 19 0 22 2;
#X connect 21 0 20 2;
#X connect 23 0 22 4;
#X connect 25 0 36 0;
#X connect 26 0 39 0;
#X connect 27 0 42 0;
#X connect 28 0 14 1;
#X connect 30 0 14 0;
#X connect 31 0 12 0;
#X connect 32 0 16 0;
#X connect 33 0 16 1;
#X connect 34 0 20 1;
#X connect 34 1 22 1;
#X connect 35 0 29 0;
#X connect 36 0 35 0;
#X connect 38 0 37 0;
#X connect 39 0 38 0;
#X connect 41 0 40 0;
#X connect 42 0 41 0;
#X connect 43 0 22 0;
#X connect 43 1 20 0;
#X connect 44 0 24 0;
#X connect 44 1 47 0;
#X connect 45 0 12 1;
#X connect 46 0 1 0;
#X connect 47 0 43 0;
#X connect 47 1 34 0;
