#N canvas 292 101 578 463 10;
#X obj 265 370 dac~;
#N canvas 0 0 471 677 dow-jones 0;
#X obj 87 44 inlet;
#X obj 73 616 outlet~;
#X restore 109 244 pd dow-jones;
#N canvas 0 0 471 686 nikkei 0;
#X obj 97 54 inlet;
#X obj 83 626 outlet~;
#X restore 384 251 pd nikkei;
#X obj 290 303 *~ 1.048;
#X obj 222 301 *~ 0.952;
#X obj 442 308 *~ 1.776;
#X obj 374 306 *~ 0.224;
#X obj 85 299 *~ 1.441;
#X obj 153 301 *~ 0.559;
#X obj 232 92 t a a a;
#X floatatom 357 371 5 0 0 0 - - -;
#X msg 231 48 1994;
#X obj 255 245 get-index dax;
#X connect 1 0 7 0;
#X connect 1 0 8 0;
#X connect 2 0 6 0;
#X connect 2 0 5 0;
#X connect 3 0 0 1;
#X connect 4 0 0 0;
#X connect 5 0 0 1;
#X connect 6 0 0 0;
#X connect 7 0 0 0;
#X connect 8 0 0 1;
#X connect 9 0 1 0;
#X connect 9 1 12 0;
#X connect 9 2 2 0;
#X connect 11 0 9 0;
#X connect 12 0 10 0;
