#N canvas 422 51 836 501 10;
#X obj 255 152 dac~;
#N canvas 44 51 601 585 get-data-from-couchdb 0;
#X obj 157 26 inlet;
#X obj -2 534 outlet~;
#X obj 89 532 outlet~;
#X obj 157 532 outlet;
#X obj 238 533 outlet;
#X obj 299 533 outlet;
#X obj 455 534 outlet;
#X obj 157 185 t a a a;
#X obj 157 131 f;
#X obj 198 132 + 1;
#X obj 251 31 spigot;
#X obj 251 54 spigot;
#X obj 251 77 spigot;
#X obj 104 281 t b b;
#X msg 131 305 1;
#X obj 251 285 t b b;
#X msg 278 309 1;
#X obj 425 291 t b b;
#X msg 452 319 1;
#X obj 251 100 t b b;
#X msg 369 64 0;
#X obj 157 162 moses 2012;
#X obj 88 475 +~;
#X obj -1 474 +~;
#X obj -1 258 get-index dowjones;
#X obj 525 534 outlet;
#X obj 525 512 bng 15 250 50 0 empty empty empty 17 7 0 10 -262144
-1 -1;
#X obj 332 264 get-index nikkei;
#X obj 176 260 get-index dax;
#X obj 176 370 *~ 0.5;
#X obj 257 445 -~;
#X obj 88 502 *~;
#X obj -1 499 *~;
#N canvas 44 51 450 340 input-video 0;
#X obj 33 105 pix_video;
#X msg 96 69 device /dev/video0;
#X obj 33 231 pix_texture;
#X obj 33 197 alpha;
#X obj 96 43 t b b;
#X obj 96 18 loadbang;
#X obj 182 311 outlet~;
#X obj 113 231 pix_pix2sig~;
#X obj 33 281 rectangle 6 4;
#X obj 33 255 scale 1;
#X msg 147 168 1;
#X obj 33 15 gemhead -3;
#X obj 33 135 pix_rgba;
#X obj 259 94 block~ 4096 64 8;
#X obj 33 166 pix_movement 0.15;
#X connect 0 0 12 0;
#X connect 1 0 0 0;
#X connect 2 0 9 0;
#X connect 3 0 2 0;
#X connect 3 0 7 0;
#X connect 4 0 1 0;
#X connect 4 1 10 0;
#X connect 5 0 4 0;
#X connect 7 4 6 0;
#X connect 9 0 8 0;
#X connect 10 0 3 1;
#X connect 11 0 0 0;
#X connect 12 0 14 0;
#X connect 14 0 3 0;
#X restore 319 377 pd input-video;
#X obj 256 421 sig~ 1;
#X obj 0 329 make-sound-from-index;
#X obj 318 399 normalize~;
#X obj 318 421 abs~;
#X obj 176 333 make-sound-from-index;
#X obj 332 342 make-sound-from-index;
#X connect 0 0 8 0;
#X connect 7 0 24 0;
#X connect 7 1 28 0;
#X connect 7 2 27 0;
#X connect 8 0 9 0;
#X connect 8 0 21 0;
#X connect 9 0 8 1;
#X connect 10 0 11 0;
#X connect 11 0 12 0;
#X connect 12 0 19 0;
#X connect 13 0 10 0;
#X connect 13 1 14 0;
#X connect 14 0 10 1;
#X connect 15 0 10 0;
#X connect 15 1 16 0;
#X connect 16 0 11 1;
#X connect 17 0 10 0;
#X connect 17 1 18 0;
#X connect 18 0 12 1;
#X connect 19 0 8 0;
#X connect 19 1 20 0;
#X connect 20 0 12 1;
#X connect 20 0 11 1;
#X connect 20 0 10 1;
#X connect 21 0 7 0;
#X connect 21 0 3 0;
#X connect 21 1 26 0;
#X connect 22 0 31 0;
#X connect 23 0 32 0;
#X connect 24 0 35 0;
#X connect 24 2 35 1;
#X connect 24 3 13 0;
#X connect 26 0 25 0;
#X connect 27 0 39 0;
#X connect 27 2 39 1;
#X connect 27 3 17 0;
#X connect 28 0 38 0;
#X connect 28 2 38 1;
#X connect 28 3 15 0;
#X connect 29 0 23 1;
#X connect 29 0 22 0;
#X connect 30 0 31 1;
#X connect 30 0 32 1;
#X connect 31 0 2 0;
#X connect 32 0 1 0;
#X connect 33 0 36 0;
#X connect 34 0 30 0;
#X connect 35 0 23 0;
#X connect 35 1 4 0;
#X connect 36 0 37 0;
#X connect 37 0 30 1;
#X connect 38 0 29 0;
#X connect 38 1 5 0;
#X connect 39 0 22 1;
#X connect 39 1 6 0;
#X restore 297 40 pd get-data-from-couchdb;
#X msg 198 200 0 \, destroy;
#X msg 131 165 \; pd dsp 0;
#X msg 64 166 \; pd dsp 1;
#X obj 37 140 t b b;
#X obj 131 126 t b b;
#N canvas 44 107 547 468 control-gem-window 0;
#X obj 64 340 gemwin;
#X obj 25 16 inlet;
#X obj 65 221 list2symbol;
#X msg 65 191 Money Talks;
#X obj 26 159 t a b b;
#X msg 45 289 lighting 0;
#X msg 65 252 dimen 800 600 \, border 1 \, offset 0 0 \, title \$1
;
#X msg 122 285 dimen 1280 1024 \, border 1 \, offset 1366 0 \, title
\$1;
#X connect 1 0 4 0;
#X connect 2 0 6 0;
#X connect 3 0 2 0;
#X connect 4 0 0 0;
#X connect 4 1 5 0;
#X connect 4 2 3 0;
#X connect 5 0 0 0;
#X connect 6 0 0 0;
#X connect 7 0 0 0;
#X restore 37 236 pd control-gem-window;
#X obj 83 60 sel 1 0;
#X obj 83 33 tgl 15 0 empty empty empty 17 7 0 10 -262144 -1 -1 0 1
;
#X obj 213 321 scale;
#X obj 378 324 scale;
#X obj 535 323 scale;
#N canvas 821 260 450 300 background 0;
#X obj 45 39 gemhead;
#X obj 45 101 pix_texture;
#X obj 45 70 pix_image earth_complete.jpg;
#X obj 45 131 translateXYZ 0 0 -10;
#X obj 45 159 rectangle 20 10;
#X connect 0 0 2 0;
#X connect 1 0 3 0;
#X connect 2 0 1 0;
#X connect 3 0 4 0;
#X restore 48 416 pd background;
#X obj 321 113 normalize~;
#X obj 254 113 normalize~;
#N canvas 44 51 450 413 record-video 0;
#X obj 70 65 inlet;
#X obj 133 66 inlet;
#X obj 210 66 inlet;
#X msg 70 113 auto 1;
#X msg 133 184 auto 0;
#X msg 97 146 file /home/thomas/Bilder/gem-rec/record 80;
#X obj 133 241 spigot;
#X obj 133 266 pix_write;
#X obj 70 90 t b b;
#X obj 16 180 gemhead -1;
#X connect 0 0 8 0;
#X connect 1 0 4 0;
#X connect 2 0 6 1;
#X connect 3 0 6 0;
#X connect 4 0 6 0;
#X connect 5 0 6 0;
#X connect 6 0 7 0;
#X connect 8 0 3 0;
#X connect 8 1 5 0;
#X connect 9 0 6 0;
#X restore 441 170 pd record-video;
#X obj 528 144 tgl 15 0 empty empty empty 17 7 0 10 -262144 -1 -1 0
1;
#N canvas 44 51 450 300 record-audio 0;
#X obj 32 34 inlet;
#X obj 81 36 inlet;
#X obj 251 36 inlet;
#X obj 81 215 writesf~ 2;
#X obj 133 37 inlet~;
#X obj 195 36 inlet~;
#X obj 81 144 spigot;
#X msg 32 84 open /home/thomas/Bilder/gem-rec/sound.wav \, start;
#X msg 81 59 stop;
#X connect 0 0 7 0;
#X connect 1 0 8 0;
#X connect 2 0 6 1;
#X connect 4 0 3 0;
#X connect 5 0 3 1;
#X connect 6 0 3 0;
#X connect 7 0 6 0;
#X connect 8 0 6 0;
#X restore 414 219 pd record-audio;
#X obj 501 196 tgl 15 0 empty empty empty 17 7 0 10 -262144 -1 -1 0
1;
#N canvas 440 71 681 579 text-display 0;
#X obj 171 105 inlet;
#X msg 171 132 text \$1;
#X obj 37 107 gemhead;
#X obj 251 134 loadbang;
#X obj 124 281 gemhead;
#X obj 134 345 gemhead;
#X obj 179 417 gemhead;
#X msg 378 264 10;
#X obj 251 162 t b b;
#X obj 268 328 text3d DOW;
#X obj 285 389 text3d DAX;
#X obj 303 469 text3d NIKKEI;
#X obj 251 231 t a a a a;
#X obj 124 302 translateXYZ -5.4 -1 -5;
#X obj 179 440 translateXYZ 10.2 -1 -5;
#X obj 134 367 translateXYZ 0.9 -1 -5;
#X obj 171 261 text3d;
#X msg 251 192 font /usr/share/fonts/truetype/ttf-dejavu/DejaVuSans.ttf
;
#X obj 37 131 translateXYZ -4 3.4 0;
#X connect 0 0 1 0;
#X connect 1 0 16 0;
#X connect 2 0 18 0;
#X connect 3 0 8 0;
#X connect 4 0 13 0;
#X connect 5 0 15 0;
#X connect 6 0 14 0;
#X connect 7 0 9 1;
#X connect 7 0 10 1;
#X connect 7 0 11 1;
#X connect 7 0 16 1;
#X connect 8 0 17 0;
#X connect 8 1 7 0;
#X connect 12 0 16 0;
#X connect 12 1 9 0;
#X connect 12 2 10 0;
#X connect 12 3 11 0;
#X connect 13 0 9 0;
#X connect 14 0 11 0;
#X connect 15 0 10 0;
#X connect 17 0 12 0;
#X connect 18 0 16 0;
#X restore 344 88 pd text-display;
#X obj 213 346 ortho;
#X obj 378 348 ortho;
#X obj 535 347 ortho;
#X obj 391 300 / 250;
#X obj 213 416 circle 1 32;
#X obj 378 277 translateXYZ 0.27 1.55 -5;
#X obj 535 277 translateXYZ 3.35 1.2 -5;
#X obj 548 300 / 250;
#X obj 484 143 t b b;
#X obj 213 393 pix_texture;
#X obj 213 370 pix_image ctex.jpg;
#X obj 378 418 circle 1 32;
#X obj 378 395 pix_texture;
#X obj 378 372 pix_image ctex.jpg;
#X obj 535 417 circle 1 32;
#X obj 535 394 pix_texture;
#X obj 535 371 pix_image ctex.jpg;
#X obj 414 142 t b b;
#X obj 344 64 t a a;
#X obj 226 298 / 250;
#X obj 414 114 sel 2007 2009;
#X msg 37 199 create \, 1 \, frame 25;
#X obj 213 257 gemhead 200;
#X obj 378 255 gemhead 200;
#X obj 535 254 gemhead 200;
#X obj 213 278 translateXYZ -1.87 1.15 -5;
#X msg 297 14 1995;
#X connect 1 0 15 0;
#X connect 1 1 14 0;
#X connect 1 2 39 0;
#X connect 1 3 40 0;
#X connect 1 4 24 0;
#X connect 1 5 28 0;
#X connect 1 6 47 0;
#X connect 2 0 7 0;
#X connect 5 0 42 0;
#X connect 5 1 4 0;
#X connect 6 0 3 0;
#X connect 6 1 2 0;
#X connect 8 0 5 0;
#X connect 8 1 6 0;
#X connect 9 0 8 0;
#X connect 10 0 21 0;
#X connect 11 0 22 0;
#X connect 12 0 23 0;
#X connect 14 0 0 1;
#X connect 14 0 18 3;
#X connect 15 0 18 2;
#X connect 15 0 0 0;
#X connect 17 0 16 2;
#X connect 19 0 18 4;
#X connect 21 0 31 0;
#X connect 22 0 34 0;
#X connect 23 0 37 0;
#X connect 24 0 11 1;
#X connect 26 0 11 0;
#X connect 27 0 12 0;
#X connect 28 0 12 1;
#X connect 29 0 16 1;
#X connect 29 1 18 1;
#X connect 30 0 25 0;
#X connect 31 0 30 0;
#X connect 33 0 32 0;
#X connect 34 0 33 0;
#X connect 36 0 35 0;
#X connect 37 0 36 0;
#X connect 38 0 18 0;
#X connect 38 1 16 0;
#X connect 39 0 20 0;
#X connect 39 1 41 0;
#X connect 40 0 10 1;
#X connect 41 0 38 0;
#X connect 41 1 29 0;
#X connect 42 0 7 0;
#X connect 43 0 46 0;
#X connect 44 0 26 0;
#X connect 45 0 27 0;
#X connect 46 0 10 0;
#X connect 47 0 1 0;
