#N canvas 292 101 578 463 10;
#X obj 265 420 dac~;
#X obj 290 353 *~ 1.048;
#X obj 222 351 *~ 0.952;
#X obj 442 358 *~ 1.776;
#X obj 374 356 *~ 0.224;
#X obj 85 349 *~ 1.441;
#X obj 153 351 *~ 0.559;
#X obj 232 142 t a a a;
#X obj 232 40 f;
#X obj 273 41 + 1;
#X obj 232 71 moses 2011;
#X floatatom 127 116 5 0 0 0 - - -;
#X obj 109 215 get-index dowjones;
#X obj 255 274 line;
#X obj 384 309 osc~;
#X obj 384 281 line;
#X msg 384 251 \$1 100;
#X obj 108 304 osc~;
#X obj 108 276 line;
#X msg 108 246 \$1 50;
#X msg 254 244 \$1 50;
#X obj 105 62 t b f;
#X obj 99 111 bng 15 250 50 0 empty empty empty 17 7 0 10 -262144 -1
-1;
#X obj 409 54 spigot;
#X obj 414 86 spigot;
#X obj 413 117 spigot;
#X obj 170 263 t b b;
#X msg 189 295 1;
#X obj 317 255 t b b;
#X msg 340 290 1;
#X obj 474 262 t b b;
#X msg 493 294 1;
#X obj 412 146 t b b;
#X msg 490 134 0;
#X obj 255 302 osc~;
#X obj 255 217 get-index dax;
#X obj 384 222 get-index nikkei;
#X msg 232 7 2000;
#X connect 1 0 0 1;
#X connect 2 0 0 0;
#X connect 3 0 0 1;
#X connect 4 0 0 0;
#X connect 5 0 0 0;
#X connect 6 0 0 1;
#X connect 7 0 12 0;
#X connect 7 1 35 0;
#X connect 7 2 36 0;
#X connect 8 0 10 0;
#X connect 8 0 21 0;
#X connect 8 0 9 0;
#X connect 9 0 8 1;
#X connect 10 0 7 0;
#X connect 12 0 19 0;
#X connect 12 1 26 0;
#X connect 13 0 34 0;
#X connect 14 0 4 0;
#X connect 14 0 3 0;
#X connect 15 0 14 0;
#X connect 16 0 15 0;
#X connect 17 0 5 0;
#X connect 17 0 6 0;
#X connect 18 0 17 0;
#X connect 19 0 18 0;
#X connect 20 0 13 0;
#X connect 21 0 22 0;
#X connect 21 1 11 0;
#X connect 23 0 24 0;
#X connect 24 0 25 0;
#X connect 25 0 32 0;
#X connect 26 0 23 0;
#X connect 26 1 27 0;
#X connect 27 0 23 1;
#X connect 28 0 23 0;
#X connect 28 1 29 0;
#X connect 29 0 24 1;
#X connect 30 0 23 0;
#X connect 30 1 31 0;
#X connect 31 0 25 1;
#X connect 32 0 8 0;
#X connect 32 1 33 0;
#X connect 33 0 25 1;
#X connect 33 0 24 1;
#X connect 33 0 23 1;
#X connect 34 0 2 0;
#X connect 34 0 1 0;
#X connect 35 0 20 0;
#X connect 35 1 28 0;
#X connect 36 0 16 0;
#X connect 36 1 30 0;
#X connect 37 0 8 0;
