#N canvas 506 99 836 564 10;
#X obj 194 144 dac~;
#X floatatom 370 -17 5 0 0 0 - - -;
#N canvas 44 51 994 666 get-data-from-couchdb 0;
#X obj 82 22 inlet;
#X obj -3 641 outlet~;
#X obj 89 643 outlet~;
#X obj 195 634 outlet;
#X obj 250 633 outlet;
#X obj 307 638 outlet;
#X obj 394 636 outlet;
#X obj 157 237 t a a a;
#X obj 157 183 f;
#X obj 198 184 + 1;
#X obj 176 391 line;
#X obj 332 392 line;
#X obj -1 386 line;
#X obj 237 83 spigot;
#X obj 237 106 spigot;
#X obj 237 129 spigot;
#X obj 104 333 t b b;
#X msg 131 357 1;
#X obj 251 337 t b b;
#X msg 278 361 1;
#X obj 425 343 t b b;
#X msg 452 371 1;
#X obj 237 152 t b b;
#X msg 353 47 0;
#X obj -2 545 pan~;
#X obj 174 559 pan~;
#X obj 331 561 pan~;
#X obj -111 318 loadbang;
#X obj -111 346 t b b b;
#X msg -111 377 -45;
#X msg -82 377 0;
#X msg -54 378 45;
#X obj -2 522 *~ 0;
#X obj -1 410 phasor~;
#X obj 176 416 phasor~;
#X obj 332 419 phasor~;
#X obj -1 337 + 20;
#X obj 176 340 + 20;
#X obj 332 340 + 20;
#X obj 55 396 line;
#X msg 55 373 \$1 200;
#X obj 243 423 line;
#X msg 243 400 \$1 200;
#X obj 398 448 line;
#X msg 398 425 \$1 200;
#X msg -1 363 \$1 200;
#X msg 176 365 \$1 200;
#X msg 332 369 \$1 200;
#X obj 332 316 get-index nikkei;
#X obj 157 214 moses 2012;
#X obj -1 462 svf~ 100 0.3;
#X obj 174 528 *~ 0;
#X obj 175 468 svf~ 100 0.3;
#X obj 34 432 * 4;
#X obj 210 438 * 4;
#X obj 332 527 *~ 0;
#X obj 333 467 svf~ 100 0.3;
#X obj 368 437 * 4;
#X obj 176 312 get-index dax;
#X obj -1 310 get-index dowjones;
#X obj 332 493 -~ 0.5;
#X obj 175 496 -~ 0.5;
#X obj 0 489 -~ 0.5;
#X obj 92 588 +~;
#X obj 88 615 +~;
#X obj -2 581 +~;
#X obj -3 611 +~;
#X connect 0 0 8 0;
#X connect 7 0 59 0;
#X connect 7 1 58 0;
#X connect 7 2 48 0;
#X connect 8 0 9 0;
#X connect 8 0 49 0;
#X connect 9 0 8 1;
#X connect 10 0 34 0;
#X connect 10 0 5 0;
#X connect 10 0 54 0;
#X connect 11 0 35 0;
#X connect 11 0 6 0;
#X connect 11 0 57 0;
#X connect 12 0 33 0;
#X connect 12 0 4 0;
#X connect 12 0 53 0;
#X connect 13 0 14 0;
#X connect 14 0 15 0;
#X connect 15 0 22 0;
#X connect 16 0 13 0;
#X connect 16 1 17 0;
#X connect 17 0 13 1;
#X connect 18 0 13 0;
#X connect 18 1 19 0;
#X connect 19 0 14 1;
#X connect 20 0 13 0;
#X connect 20 1 21 0;
#X connect 21 0 15 1;
#X connect 22 0 8 0;
#X connect 22 1 23 0;
#X connect 23 0 15 1;
#X connect 23 0 14 1;
#X connect 23 0 13 1;
#X connect 24 0 65 0;
#X connect 24 1 63 0;
#X connect 25 0 65 1;
#X connect 25 1 63 1;
#X connect 26 0 66 1;
#X connect 26 1 64 1;
#X connect 27 0 28 0;
#X connect 28 0 29 0;
#X connect 28 1 30 0;
#X connect 28 2 31 0;
#X connect 29 0 24 1;
#X connect 30 0 25 1;
#X connect 31 0 26 1;
#X connect 32 0 24 0;
#X connect 33 0 50 0;
#X connect 34 0 52 0;
#X connect 35 0 56 0;
#X connect 36 0 45 0;
#X connect 37 0 46 0;
#X connect 38 0 47 0;
#X connect 40 0 39 0;
#X connect 42 0 41 0;
#X connect 44 0 43 0;
#X connect 45 0 12 0;
#X connect 46 0 10 0;
#X connect 47 0 11 0;
#X connect 48 0 38 0;
#X connect 48 1 44 0;
#X connect 48 2 55 1;
#X connect 48 3 20 0;
#X connect 49 0 7 0;
#X connect 49 0 3 0;
#X connect 50 0 62 0;
#X connect 51 0 25 0;
#X connect 52 0 61 0;
#X connect 53 0 50 1;
#X connect 54 0 52 1;
#X connect 55 0 26 0;
#X connect 56 0 60 0;
#X connect 57 0 56 1;
#X connect 58 0 37 0;
#X connect 58 1 42 0;
#X connect 58 2 51 1;
#X connect 58 3 18 0;
#X connect 59 0 36 0;
#X connect 59 1 40 0;
#X connect 59 2 32 1;
#X connect 59 3 16 0;
#X connect 60 0 55 0;
#X connect 61 0 51 0;
#X connect 62 0 32 0;
#X connect 63 0 64 0;
#X connect 64 0 2 0;
#X connect 65 0 66 0;
#X connect 66 0 1 0;
#X restore 239 40 pd get-data-from-couchdb;
#X obj 395 307 gemhead;
#X msg 173 230 0 \, destroy;
#X msg 110 189 \; pd dsp 0;
#X msg 47 189 \; pd dsp 1;
#X obj 22 162 t b b;
#X obj 116 148 t b b;
#N canvas 20 121 547 468 control-gem-window 0;
#X obj 78 340 gemwin;
#X obj 25 16 inlet;
#X obj 76 221 list2symbol;
#X obj 26 159 t a b b b;
#X msg 181 353 dimen 800 600 \, border 0 \, offset 1366 0 \, title
\$1;
#X msg 83 252 dimen 800 600 \, border 1 \, offset 0 0 \, title \$1
;
#X msg 21 288 lighting 0;
#X msg 76 191 Money Talks;
#X connect 1 0 3 0;
#X connect 2 0 5 0;
#X connect 2 0 4 0;
#X connect 3 0 0 0;
#X connect 3 1 6 0;
#X connect 3 3 7 0;
#X connect 5 0 0 0;
#X connect 6 0 0 0;
#X connect 7 0 2 0;
#X restore 45 282 pd control-gem-window;
#X obj 68 82 sel 1 0;
#X msg 28 228 create \, 1 \, frame 25;
#X obj 72 55 tgl 15 0 empty empty empty 17 7 0 10 -262144 -1 -1 0 1
;
#X msg 310 171 text \$1;
#X obj 395 395 scale;
#X obj 395 424 sphere 1 64;
#X obj 140 329 gemhead;
#X obj 140 417 scale;
#X obj 140 446 sphere 1 64;
#X obj 260 307 gemhead;
#X obj 260 395 scale;
#X obj 260 424 sphere 1 64;
#X obj 258 139 gemhead;
#N canvas 0 0 450 300 background 0;
#X obj 45 39 gemhead;
#X obj 45 101 pix_texture;
#X obj 45 70 pix_image earth_complete.jpg;
#X obj 45 131 translateXYZ 0 0 -10;
#X obj 45 159 rectangle 20 10;
#X connect 0 0 2 0;
#X connect 1 0 3 0;
#X connect 2 0 1 0;
#X connect 3 0 4 0;
#X restore 69 -43 pd background;
#X obj 260 341 translateXYZ 10 3 -5;
#X obj 140 363 translateXYZ 0.5 3.5 -5;
#X obj 395 342 translateXYZ -5 3 -5;
#X obj 273 364 / 100;
#X obj 153 386 / 100;
#X obj 407 362 / 100;
#X obj 263 80 normalize~;
#X obj 178 77 normalize~;
#X obj 309 223 text3d;
#X obj 240 17 t a b b;
#N canvas 0 0 450 413 record-video 0;
#X obj 61 36 inlet;
#X obj 133 40 inlet;
#X obj 270 51 inlet;
#X obj 19 132 gemhead;
#X msg 70 113 auto 1;
#X msg 133 184 auto 0;
#X msg 97 146 file /home/thomas/Bilder/gem-rec/record 80;
#X obj 97 241 spigot;
#X obj 97 266 pix_write;
#X obj 70 84 t b b;
#X connect 0 0 9 0;
#X connect 1 0 5 0;
#X connect 2 0 7 1;
#X connect 3 0 7 0;
#X connect 4 0 7 0;
#X connect 5 0 7 0;
#X connect 6 0 7 0;
#X connect 7 0 8 0;
#X connect 9 0 4 0;
#X connect 9 1 6 0;
#X restore 648 31 pd record-video;
#X obj 739 5 tgl 15 0 empty empty empty 17 7 0 10 -262144 -1 -1 0 1
;
#N canvas 0 0 450 300 record-audio 0;
#X obj 32 34 inlet;
#X obj 115 40 inlet;
#X obj 371 37 inlet;
#X obj 84 215 writesf~ 2;
#X obj 195 41 inlet~;
#X obj 257 40 inlet~;
#X obj 74 144 spigot;
#X msg 54 84 open /home/thomas/Bilder/gem-rec/sound.wav \, start;
#X msg 102 67 stop;
#X connect 0 0 7 0;
#X connect 1 0 8 0;
#X connect 2 0 6 1;
#X connect 4 0 3 0;
#X connect 5 0 3 1;
#X connect 6 0 3 0;
#X connect 7 0 6 0;
#X connect 8 0 6 0;
#X restore 520 171 pd record-audio;
#X obj 568 74 t b b;
#X obj 612 108 tgl 15 0 empty empty empty 17 7 0 10 -262144 -1 -1 1
1;
#X msg 244 -7 1991;
#X obj 474 38 moses 2012;
#X connect 2 0 31 0;
#X connect 2 1 30 0;
#X connect 2 2 1 0;
#X connect 2 2 13 0;
#X connect 2 2 40 0;
#X connect 2 3 29 0;
#X connect 2 4 28 0;
#X connect 2 5 27 0;
#X connect 3 0 26 0;
#X connect 4 0 9 0;
#X connect 7 0 11 0;
#X connect 7 1 6 0;
#X connect 8 0 5 0;
#X connect 8 1 4 0;
#X connect 10 0 7 0;
#X connect 10 1 8 0;
#X connect 11 0 9 0;
#X connect 12 0 10 0;
#X connect 13 0 32 0;
#X connect 14 0 15 0;
#X connect 16 0 25 0;
#X connect 17 0 18 0;
#X connect 19 0 24 0;
#X connect 20 0 21 0;
#X connect 22 0 32 0;
#X connect 24 0 20 0;
#X connect 25 0 17 0;
#X connect 26 0 14 0;
#X connect 27 0 20 1;
#X connect 28 0 17 1;
#X connect 29 0 14 1;
#X connect 30 0 0 1;
#X connect 30 0 36 3;
#X connect 31 0 0 0;
#X connect 31 0 36 2;
#X connect 33 0 2 0;
#X connect 33 1 34 0;
#X connect 33 2 36 0;
#X connect 35 0 34 2;
#X connect 37 0 34 1;
#X connect 37 1 36 1;
#X connect 38 0 36 4;
#X connect 39 0 33 0;
#X connect 40 1 37 0;
